<svg width="14" height="14" viewBox="0 0 14 14" fill="none" xmlns="http://www.w3.org/2000/svg">
<rect width="14" height="14" rx="7" fill="#767676"/>
<path d="M4.31689 9.71533C4.25081 9.64925 4.20638 9.57178 4.18359 9.48291C4.16309 9.39176 4.16423 9.3029 4.18701 9.21631C4.2098 9.12744 4.25195 9.05225 4.31348 8.99072L6.26514 7.03564L4.31348 5.08398C4.25195 5.02246 4.2098 4.94727 4.18701 4.8584C4.1665 4.76953 4.1665 4.68066 4.18701 4.5918C4.2098 4.50293 4.25309 4.42546 4.31689 4.35938C4.38298 4.29102 4.46045 4.24658 4.54932 4.22607C4.64046 4.20557 4.73047 4.20557 4.81934 4.22607C4.9082 4.24658 4.98454 4.28874 5.04834 4.35254L7 6.30078L8.94824 4.35254C9.01204 4.28874 9.08838 4.24658 9.17725 4.22607C9.26611 4.20329 9.35384 4.20329 9.44043 4.22607C9.5293 4.24886 9.60791 4.29329 9.67627 4.35938C9.74235 4.42546 9.78678 4.50293 9.80957 4.5918C9.83236 4.68066 9.83236 4.76953 9.80957 4.8584C9.78906 4.94499 9.74691 5.02132 9.68311 5.0874L7.73486 7.03564L9.68311 8.9873C9.74691 9.05111 9.78906 9.12744 9.80957 9.21631C9.83008 9.30518 9.82894 9.39404 9.80615 9.48291C9.78564 9.57178 9.74235 9.64925 9.67627 9.71533C9.61019 9.78141 9.53271 9.82471 9.44385 9.84521C9.35498 9.868 9.26611 9.86914 9.17725 9.84863C9.08838 9.82812 9.01204 9.78483 8.94824 9.71875L7 7.77051L5.04834 9.72217C4.98454 9.78369 4.9082 9.82471 4.81934 9.84521C4.73275 9.868 4.64388 9.868 4.55273 9.84521C4.46387 9.82471 4.38525 9.78141 4.31689 9.71533Z" fill="#D9D9D3"/>
</svg>
